<svg xmlns="http://www.w3.org/2000/svg" version="1.1" xmlns:xlink="http://www.w3.org/1999/xlink" xmlns:svgjs="http://svgjs.dev/svgjs" width="1440" height="560" preserveAspectRatio="none" viewBox="0 0 1440 560"><g mask="url(&quot;#SvgjsMask1020&quot;)" fill="none"><rect width="1440" height="560" x="0" y="0" fill="url(&quot;#SvgjsLinearGradient1021&quot;)"></rect><path d="M41.9 308.44 a170.37 170.37 0 1 0 340.74 0 a170.37 170.37 0 1 0 -340.74 0z" fill="rgba(38, 56, 180, 0.42)" class="triangle-float1"></path><path d="M280.5 394.81 a164.95 164.95 0 1 0 329.9 0 a164.95 164.95 0 1 0 -329.9 0z" fill="rgba(38, 56, 180, 0.42)" class="triangle-float2"></path><path d="M1124.1 341.56 a123.53 123.53 0 1 0 247.06 0 a123.53 123.53 0 1 0 -247.06 0z" fill="rgba(38, 56, 180, 0.42)" class="triangle-float1"></path><path d="M311.27 499.62 a103.28 103.28 0 1 0 206.56 0 a103.28 103.28 0 1 0 -206.56 0z" fill="rgba(38, 56, 180, 0.42)" class="triangle-float1"></path><path d="M1160.35 22.18 a163.07 163.07 0 1 0 326.14 0 a163.07 163.07 0 1 0 -326.14 0z" fill="rgba(38, 56, 180, 0.42)" class="triangle-float3"></path><path d="M925.87 500.89 a139.7 139.7 0 1 0 279.4 0 a139.7 139.7 0 1 0 -279.4 0z" fill="rgba(38, 56, 180, 0.42)" class="triangle-float2"></path></g><defs><mask id="SvgjsMask1020"><rect width="1440" height="560" fill="#ffffff"></rect></mask><linearGradient x1="84.72%" y1="139.29%" x2="15.28%" y2="-39.29%" gradientUnits="userSpaceOnUse" id="SvgjsLinearGradient1021"><stop stop-color="#0e2a47" offset="0"></stop><stop stop-color="rgba(0, 0, 0, 1)" offset="1"></stop></linearGradient><style>
                @keyframes float1 {
                    0%{transform: translate(0, 0)}
                    50%{transform: translate(-10px, 0)}
                    100%{transform: translate(0, 0)}
                }

                .triangle-float1 {
                    animation: float1 5s infinite;
                }

                @keyframes float2 {
                    0%{transform: translate(0, 0)}
                    50%{transform: translate(-5px, -5px)}
                    100%{transform: translate(0, 0)}
                }

                .triangle-float2 {
                    animation: float2 4s infinite;
                }

                @keyframes float3 {
                    0%{transform: translate(0, 0)}
                    50%{transform: translate(0, -10px)}
                    100%{transform: translate(0, 0)}
                }

                .triangle-float3 {
                    animation: float3 6s infinite;
                }
            </style></defs></svg>